<svg width="227" height="74" viewBox="0 0 227 74" fill="none" xmlns="http://www.w3.org/2000/svg">
<g id="Rectangle 12">
<path d="M0 10C0 4.47715 4.47715 0 10 0H217C222.523 0 227 4.47715 227 10V64C227 69.5229 222.523 74 217 74H9.99999C4.47715 74 0 69.5229 0 64V10Z" fill="#EC2440"/>
<path d="M0 10C0 4.47715 4.47715 0 10 0H217C222.523 0 227 4.47715 227 10V64C227 69.5229 222.523 74 217 74H9.99999C4.47715 74 0 69.5229 0 64V10Z" fill="url(#paint0_linear_55_461)" fill-opacity="0.2"/>
</g>
<defs>
<linearGradient id="paint0_linear_55_461" x1="113.5" y1="0" x2="113.5" y2="74" gradientUnits="userSpaceOnUse">
<stop stop-color="#F77925"/>
<stop offset="0.9999" stop-color="#FFE6E6" stop-opacity="0.484375"/>
<stop offset="1" stop-opacity="0"/>
</linearGradient>
</defs>
</svg>
